<svg xmlns="http://www.w3.org/2000/svg" xmlns:xlink="http://www.w3.org/1999/xlink" viewBox="0 0 12.42 12.64"><defs><style>.cls-1,.cls-4{fill:none;stroke-linecap:round;stroke-miterlimit:10;stroke-width:1.5px;}.cls-1{stroke:url(#linear-gradient);}.cls-2{fill:url(#linear-gradient-2);}.cls-3{fill:url(#linear-gradient-3);}.cls-4{stroke:url(#linear-gradient-4);}</style><linearGradient id="linear-gradient" x1="-0.49" y1="3.68" x2="8.1" y2="8.64" gradientUnits="userSpaceOnUse"><stop offset="0" stop-color="#1191a8"/><stop offset="0.24" stop-color="#179aaa"/><stop offset="0.64" stop-color="#27b4b0"/><stop offset="0.99" stop-color="#39cfb6"/></linearGradient><linearGradient id="linear-gradient-2" x1="3.1" y1="4.75" x2="6.11" y2="4.75" xlink:href="#linear-gradient"/><linearGradient id="linear-gradient-3" x1="3.31" y1="4" x2="5.9" y2="5.5" xlink:href="#linear-gradient"/><linearGradient id="linear-gradient-4" x1="7.85" y1="3.55" x2="12.66" y2="6.33" xlink:href="#linear-gradient"/></defs><title>NSEar</title><g id="Layer_2" data-name="Layer 2"><g id="PopOver_Hover" data-name="PopOver Hover"><g id="Contextual_Information" data-name="Contextual Information"><g id="Icon"><path class="cls-1" d="M.75,3a4.59,4.59,0,0,1,4-2.28C7.12.74,8.7,3,8.75,5A4.71,4.71,0,0,1,6.46,8.75,2.78,2.78,0,0,0,5,10.46a2.5,2.5,0,0,1-2,1.43A2.1,2.1,0,0,1,1.32,11"/><circle class="cls-2" cx="4.6" cy="4.75" r="1.5"/><path class="cls-3" d="M4.61,3.25a1.5,1.5,0,1,0,1.5,1.5,1.5,1.5,0,0,0-1.5-1.5Z"/><path class="cls-4" d="M10.17,1c2,1.71,2,6,0,7.71"/></g></g></g></g></svg>