<svg xmlns="http://www.w3.org/2000/svg" xmlns:xlink="http://www.w3.org/1999/xlink" viewBox="0 0 13.69 13.69"><defs><style>.cls-1{fill:#fff;}.cls-2{fill:url(#linear-gradient);}.cls-3{font-size:9.24px;font-family:Poly-Italic, Poly;font-style:italic;}.cls-4{fill:url(#linear-gradient-2);}.cls-5{fill:none;stroke-miterlimit:10;stroke:url(#linear-gradient-2);}</style><linearGradient id="linear-gradient" y1="6.85" x2="13.69" y2="6.85" gradientUnits="userSpaceOnUse"><stop offset="0" stop-color="#1191a8"/><stop offset="0.24" stop-color="#179aaa"/><stop offset="0.64" stop-color="#27b4b0"/><stop offset="0.99" stop-color="#39cfb6"/></linearGradient><linearGradient id="linear-gradient-2" x1="5.71" y1="6.67" x2="7.62" y2="6.67" xlink:href="#linear-gradient"/></defs><title>NSInformation</title><g id="Layer_2" data-name="Layer 2"><g id="Button"><g id="Button_non_hover" data-name="Button non hover"><g id="Information"><circle class="cls-1" cx="6.85" cy="6.85" r="6.85"/><path class="cls-2" d="M6.85,1A5.85,5.85,0,1,1,1,6.85,5.85,5.85,0,0,1,6.85,1m0-1a6.85,6.85,0,1,0,6.85,6.85A6.85,6.85,0,0,0,6.85,0Z"/><text class="cls-3" transform="translate(5.32 9.98)">i</text><path class="cls-4" d="M7.55,9.55a1.85,1.85,0,0,1-1.16.52c-.4,0-.5-.26-.5-.58A5.88,5.88,0,0,1,6,8.7L6.4,6.44a1.27,1.27,0,0,0,0-.16c0-.19-.21-.26-.71-.35l0-.3a13.29,13.29,0,0,1,1.46-.13l.08.09a6.16,6.16,0,0,1-.1.84L6.74,8.87c0,.06-.06.32-.06.43s0,.22.15.22a1.68,1.68,0,0,0,.55-.22ZM7.09,4.3a.46.46,0,0,1-.5-.52.49.49,0,0,1,.51-.51.48.48,0,0,1,.53.51A.52.52,0,0,1,7.09,4.3Z"/><path class="cls-5" d="M7.55,9.55a1.85,1.85,0,0,1-1.16.52c-.4,0-.5-.26-.5-.58A5.88,5.88,0,0,1,6,8.7L6.4,6.44a1.27,1.27,0,0,0,0-.16c0-.19-.21-.26-.71-.35l0-.3a13.29,13.29,0,0,1,1.46-.13l.08.09a6.16,6.16,0,0,1-.1.84L6.74,8.87c0,.06-.06.32-.06.43s0,.22.15.22a1.68,1.68,0,0,0,.55-.22ZM7.09,4.3a.46.46,0,0,1-.5-.52.49.49,0,0,1,.51-.51.48.48,0,0,1,.53.51A.52.52,0,0,1,7.09,4.3Z"/></g></g></g></g></svg>