<?xml version="1.0" encoding="utf-8"?>
<!-- Generator: Adobe Illustrator 21.1.0, SVG Export Plug-In . SVG Version: 6.00 Build 0)  -->
<svg version="1.1" id="Layer_1" xmlns="http://www.w3.org/2000/svg" xmlns:xlink="http://www.w3.org/1999/xlink" x="0px" y="0px"
	 viewBox="0 0 275.7 50" style="enable-background:new 0 0 275.7 50;" xml:space="preserve">
<style type="text/css">
	.st0{fill:#FFFFFF;}
</style>
<g id="Layer_1_1_">
	<g>
		<g id="g3_1_">
			<path id="path5_1_" class="st0" d="M30.2,48.1h-7.9L7.9,29.5v18.6H0V17.8h7.9l14.5,18.5V17.8h7.9L30.2,48.1L30.2,48.1z"/>
			<path id="path7_1_" class="st0" d="M61.4,48.1H54l-1.7-4.6h-9.5L41,48.1h-7.3l10.2-26.5h7.5L61.4,48.1z M50.4,38.2l-2.8-8.4
				l-2.9,8.4H50.4z"/>
			<path id="path9_1_" class="st0" d="M96.5,48.1h-6.9l-2-15.3l-6.4,15.3h-2.7l-6.1-15.3l-2.2,15.3h-6.9l4.5-26.5h6.8L80,35.7
				l5.7-14.1h6.9L96.5,48.1z"/>
			<path id="path11_1_" class="st0" d="M115.9,48.1h-15.1V21.6h15.1v5.7h-8.2v4.5h7.7v5.7h-7.7v4.7h8.2V48.1L115.9,48.1z"/>
		</g>
		<g id="g13_1_">
			<path id="path15_1_" class="st0" d="M143.5,38.1c0,5.1-2.2,8.5-6.7,10c-1.6,0.6-3.3,0.8-5.1,0.8c-3.8,0-7.5-1.2-10.6-3.4l3.4-6.3
				c2.4,2.1,4.7,3.2,7,3.2c0.9,0,1.8-0.2,2.6-0.7s1.3-1.4,1.2-2.3c0-0.9-0.5-1.6-1.4-2.2c-1.1-0.6-2.2-1.1-3.4-1.4
				c-2-0.6-3.2-1-3.7-1.2c-0.7-0.3-1.4-0.7-2-1.2c-1.6-1.3-2.4-3.3-2.4-6c0-2.8,0.8-5.1,2.5-7c2-2.2,4.6-3.2,7.8-3.2
				c3.4,0,6.7,0.9,9.6,2.5l-3.2,6.1c-1.7-1.4-3.5-2-5.2-2c-0.8,0-1.6,0.2-2.3,0.6s-1.1,1.2-1.1,2s0.5,1.5,1.5,2.1
				c0.4,0.3,1.8,0.7,4,1.4c2.8,0.8,4.8,2,6,3.5C142.9,34.4,143.5,36.1,143.5,38.1z"/>
			<path id="path17_1_" class="st0" d="M171.8,48.1h-6.9v-11H155v11h-7V21.6h6.9v10.2h9.9V21.6h6.9v26.5H171.8z"/>
			<path id="path19_1_" class="st0" d="M205.5,34.9c0,3.5-1.3,6.9-3.6,9.5c-2.7,3.1-6.4,4.6-11.1,4.6c-4.7,0-8.3-1.5-11.1-4.6
				c-2.3-2.6-3.6-6-3.6-9.5c0-1.7,0.4-3.4,1-5.1c0.6-1.6,1.5-3.1,2.6-4.4c2.7-3.1,6.4-4.6,11.1-4.6s8.3,1.5,11.1,4.6
				C204.3,28,205.5,31.4,205.5,34.9z M198.4,34.9c0-1.8-0.6-3.5-1.8-4.8c-2.7-3.2-7.5-3.5-10.6-0.8c-1.7,1.4-2.6,3.5-2.6,5.7
				c0,1.8,0.6,3.5,1.8,4.8c1.4,1.7,3.5,2.7,5.7,2.6C194.9,42.4,198.3,39.1,198.4,34.9C198.4,35,198.4,35,198.4,34.9z"/>
			<path id="path21_1_" class="st0" d="M233,36.9c0,1.4-0.1,2.7-0.4,4.1c-0.5,1.8-1.5,3.5-2.9,4.8c-2.1,2-5,3-8.6,3
				c-3.7,0-6.5-1-8.6-3.1c-1.1-1.1-1.9-2.6-2.2-4.1s-0.5-3.1-0.4-4.7V21.6h6.9v14.3c0,1.2,0,2,0.1,2.6c0.1,1.8,1,3.1,2.5,3.8
				c0.6,0.3,1.3,0.5,2.1,0.4c1.7,0,3-0.6,3.8-1.8c0.6-0.9,0.9-2.5,0.9-5V21.6h6.9L233,36.9L233,36.9L233,36.9z"/>
			<path id="path23_1_" class="st0" d="M254.2,27.3h-5.7v20.8h-6.9V27.3H236v-5.7h18.2V27.3L254.2,27.3z"/>
			<path id="path25_1_" class="st0" d="M275.7,39.3c0,4.5-2,7.4-5.9,8.8c-1.4,0.5-2.9,0.7-4.4,0.7c-3.3,0-6.5-1.1-9.2-3l3-5.6
				c2.1,1.9,4.1,2.8,6.1,2.8c0.8,0,1.6-0.2,2.3-0.6c0.7-0.4,1.1-1.2,1.1-2s-0.5-1.6-1.2-2c-0.9-0.5-2-0.9-3-1.2
				c-1.7-0.5-2.8-0.9-3.2-1c-0.6-0.3-1.2-0.6-1.8-1c-1.4-1.2-2.1-2.9-2.1-5.3c0-2.5,0.7-4.5,2.2-6.1c1.7-1.9,4-2.8,6.8-2.8
				c2.9,0,5.8,0.8,8.4,2.2l-2.8,5.4c-1.5-1.2-3-1.8-4.5-1.8c-0.7,0-1.4,0.2-2,0.6c-0.6,0.3-1,1-1,1.7s0.4,1.3,1.3,1.8
				c0.4,0.2,1.6,0.6,3.5,1.2c2.4,0.7,4.2,1.7,5.2,3C275.3,36.3,275.7,37.8,275.7,39.3z"/>
		</g>
		<g id="g4169_1_">
			<path id="path5-0_1_" class="st0" d="M182.2,11.9c0.6,0.6,1.5,0.6,2.1,0l0,0c3.8-3.9,10-4,13.9-0.3c0.1,0.1,0.2,0.2,0.3,0.3
				c0.6,0.6,1.5,0.6,2.1,0l0,0c0.6-0.6,0.6-1.6,0-2.2c-4.9-5.1-13-5.2-18.1-0.3c-0.1,0.1-0.2,0.2-0.3,0.3
				C181.6,10.4,181.6,11.3,182.2,11.9L182.2,11.9L182.2,11.9z"/>
			<path id="path7-6_1_" class="st0" d="M186.3,16c0.6,0.6,1.5,0.6,2.1,0l0,0c1.5-1.6,4-1.6,5.6-0.1l0.1,0.1c0.6,0.6,1.5,0.6,2.1,0
				l0,0c0.6-0.6,0.6-1.6,0-2.2c-2.6-2.7-7-2.8-9.7-0.2c-0.1,0.1-0.1,0.1-0.2,0.2C185.8,14.4,185.8,15.4,186.3,16L186.3,16z"/>
			<path id="path9-2_1_" class="st0" d="M175.8,6.7c-0.6,0.6-0.6,1.6,0,2.2c0.6,0.6,1.5,0.6,2.1,0l0,0c7.3-7.6,19.3-7.8,26.9-0.5
				c0.2,0.2,0.3,0.3,0.5,0.5c0.6,0.6,1.5,0.6,2.1,0l0,0c0.6-0.6,0.6-1.6,0-2.2c-8.4-8.7-22.3-9-31-0.5C176.2,6.3,176,6.5,175.8,6.7
				L175.8,6.7L175.8,6.7z"/>
		</g>
	</g>
</g>
<g id="Layer_2">
</g>
</svg>
