<?xml version="1.0" encoding="utf-8"?>
<!-- Generator: Adobe Illustrator 19.2.0, SVG Export Plug-In . SVG Version: 6.00 Build 0)  -->
<svg version="1.1" xmlns="http://www.w3.org/2000/svg" xmlns:xlink="http://www.w3.org/1999/xlink" x="0px" y="0px"
	 viewBox="0 0 24.1 25.4" style="enable-background:new 0 0 24.1 25.4;" xml:space="preserve">
<style type="text/css">
	.st0{fill:url(#SVGID_1_);}
	.st1{opacity:0.2;}
	.st2{fill:#FFFFFF;}
	.st3{fill:url(#SVGID_2_);}
	.st4{fill:#525866;}
	.st5{opacity:0.85;fill:#999999;stroke:#999999;stroke-miterlimit:10;}
	.st6{opacity:0.82;fill:none;stroke:#808080;stroke-miterlimit:10;}
	.st7{fill:none;stroke:#F06966;stroke-width:1.25;stroke-miterlimit:10;}
	.st8{opacity:0.9;}
	.st9{fill:#FC636B;stroke:#FC636B;stroke-miterlimit:10;}
	.st10{fill:#0F406D;}
	.st11{fill:url(#SVGID_3_);}
	.st12{fill:url(#SVGID_4_);}
	.st13{fill:url(#SVGID_5_);}
	.st14{fill:url(#SVGID_6_);}
	.st15{fill:url(#SVGID_7_);}
	.st16{fill:url(#SVGID_8_);}
	.st17{fill:url(#SVGID_9_);}
	.st18{fill:url(#SVGID_10_);}
	.st19{fill:url(#SVGID_11_);}
	.st20{fill:#FFFFFF;stroke:#B7B7B7;stroke-width:2;stroke-miterlimit:10;}
	.st21{fill:#8E8E8E;}
	.st22{fill:#B7B7B7;}
	.st23{fill:none;stroke:#B7B7B7;stroke-width:2;stroke-linecap:round;stroke-linejoin:round;stroke-miterlimit:10;}
	.st24{fill:#FFFFFF;stroke:url(#SVGID_12_);stroke-width:2;stroke-miterlimit:10;}
	.st25{fill:url(#SVGID_13_);}
	.st26{fill:url(#SVGID_14_);}
	.st27{fill:url(#SVGID_15_);}
	.st28{fill:url(#SVGID_16_);}
	.st29{fill:url(#SVGID_17_);}
	.st30{fill:url(#SVGID_18_);}
	.st31{fill:#FFFFFF;stroke:url(#SVGID_19_);stroke-width:0.75;stroke-miterlimit:10;}
	.st32{fill:url(#SVGID_20_);stroke:url(#SVGID_21_);stroke-width:2;stroke-miterlimit:10;}
	.st33{fill:url(#SVGID_22_);stroke:url(#SVGID_23_);stroke-miterlimit:10;}
	.st34{fill:url(#SVGID_24_);stroke:url(#SVGID_25_);stroke-miterlimit:10;}
	.st35{fill:#FFFFFF;stroke:url(#SVGID_26_);stroke-width:2;stroke-miterlimit:10;}
	.st36{fill:url(#SVGID_27_);}
	.st37{fill:url(#SVGID_28_);}
	.st38{fill:url(#SVGID_29_);}
	.st39{fill:url(#SVGID_30_);}
	.st40{fill:url(#SVGID_31_);}
	.st41{fill:url(#SVGID_32_);}
	.st42{fill:url(#SVGID_33_);stroke:url(#SVGID_34_);stroke-width:2;stroke-miterlimit:10;}
	.st43{fill:#256CC6;stroke:#256CC6;stroke-miterlimit:10;}
	.st44{clip-path:url(#SVGID_36_);}
	.st45{clip-path:url(#SVGID_40_);}
	.st46{clip-path:url(#SVGID_44_);}
	.st47{clip-path:url(#SVGID_48_);}
	.st48{clip-path:url(#SVGID_52_);}
	.st49{clip-path:url(#SVGID_56_);}
	.st50{clip-path:url(#SVGID_60_);}
	.st51{clip-path:url(#SVGID_64_);}
	.st52{clip-path:url(#SVGID_68_);}
	.st53{clip-path:url(#SVGID_72_);}
	.st54{clip-path:url(#SVGID_76_);}
	.st55{clip-path:url(#SVGID_80_);}
	.st56{clip-path:url(#SVGID_84_);}
	.st57{clip-path:url(#SVGID_89_);}
	.st58{clip-path:url(#SVGID_90_);}
	.st59{clip-path:url(#SVGID_94_);}
	.st60{clip-path:url(#SVGID_98_);}
	.st61{clip-path:url(#SVGID_102_);}
	.st62{clip-path:url(#SVGID_106_);}
	.st63{clip-path:url(#SVGID_110_);}
	.st64{clip-path:url(#SVGID_114_);}
	.st65{fill:url(#SVGID_117_);}
	.st66{fill:url(#SVGID_118_);}
	.st67{fill:url(#SVGID_119_);}
	.st68{fill:url(#SVGID_120_);}
	.st69{fill:url(#SVGID_121_);}
	.st70{fill:url(#SVGID_122_);}
	.st71{fill:url(#SVGID_123_);}
	.st72{fill:url(#SVGID_124_);}
	.st73{fill:url(#SVGID_125_);}
	.st74{fill:url(#SVGID_126_);}
</style>
<g id="Layer_1">
	<g id="male_icon">
		<path class="st43" d="M0.5,23.8C1,21.3,2.7,20,4.9,19.2c0.9-0.4,1.9-0.8,2.8-1.2c1-0.6,1.4-2.3,0.7-3.3C8.3,14.5,8.1,14.3,8,14
			c-0.4-0.8-0.7-1.7-1.3-2.4C6.2,10.9,6.2,10,6.6,9.1c0.1-0.3,0-0.6,0-0.9c0-1.3-0.2-2.6-0.1-3.9c0.3-2,1.8-3.5,3.8-3.7
			c1-0.1,1.9-0.1,2.9,0c0.5,0.1,1,0.4,1.5,0.7c0.1,0.1,0.3,0.2,0.4,0.3C17,2,17.8,3.8,17.7,5.2c0,1.1-0.2,2.2-0.3,3.3
			c0,0.3,0,0.5,0.1,0.8c0.3,0.8,0.1,2.1-0.5,2.8c-0.2,0.3-0.4,0.6-0.5,0.9c-0.3,0.5-0.4,1.1-0.7,1.6c-0.8,1.3-0.5,2.9,0.9,3.6
			c1.1,0.5,2.2,1,3.3,1.5c1.6,0.7,2.9,1.8,3.3,3.6c0.1,0.5,0.2,1.1,0.3,1.7c-0.3,0-0.5,0-0.6,0c-7.3,0-14.6,0-21.9,0
			c-0.2,0-0.3,0-0.5,0C0.5,24.5,0.5,24.2,0.5,23.8z M15.6,11.5c0.9-0.3,1.2-1.2,0.6-2c-0.1-0.2-0.1-0.5-0.1-0.7c0.1-1,0.4-2,0.5-2.9
			c0.1-1,0-2.1-0.9-2.8c-0.7-0.5-1.6-1-2.5-1.3c-0.6-0.2-1.3-0.2-2-0.1C9,1.7,7.7,3,7.5,5.1C7.5,6.3,7.8,7.5,7.8,8.7
			c0,0.3,0,0.6-0.2,0.8c-0.3,0.5-0.1,1.5,0.4,1.8c0.2,0.1,0.3,0.3,0.4,0.5c0.3,0.7,0.4,1.5,0.9,2.1c0.4,0.5,0.5,1,0.5,1.6
			c0,0.2,0,0.4,0,0.6c0.1,1.3-0.5,2.3-1.7,2.8c-0.9,0.5-1.9,0.8-2.8,1.3c-0.9,0.5-1.8,1-2.6,1.6c-0.6,0.4-0.9,1.1-1,1.9
			c6.9,0,13.7,0,20.5,0c-0.1-0.8-0.4-1.5-1-1.9c-0.9-0.6-1.9-1.2-2.8-1.7c-1-0.5-2-0.9-2.9-1.4c-1.1-0.7-1.8-3.1-1.2-4.2
			c0,0,0-0.1,0.1-0.1C15.2,13.6,15.4,12.5,15.6,11.5z"/>
	</g>
</g>
<g id="Layer_2">
</g>
</svg>
